<?xml version="1.0" encoding="iso-8859-1"?>
<!-- Generator: Adobe Illustrator 19.0.0, SVG Export Plug-In . SVG Version: 6.00 Build 0)  -->
<svg xmlns="http://www.w3.org/2000/svg" xmlns:xlink="http://www.w3.org/1999/xlink" version="1.1" id="Layer_1" x="0px" y="0px" viewBox="0 0 512 512" style="enable-background:new 0 0 512 512;" xml:space="preserve" width="512px" height="512px">
<g>
	<g>
		<g>
			<path d="M327.545,156.873c4.165-4.165,4.165-10.919,0-15.085c-4.165-4.165-10.917-4.165-15.086,0L184.453,269.792     c-4.165,4.165-4.165,10.92,0,15.086c2.083,2.082,4.813,3.124,7.542,3.124s5.459-1.042,7.542-3.124L327.545,156.873z" fill="#0098fd"/>
			<path d="M223.998,106.665c-23.528,0-42.668,19.139-42.668,42.666c0,23.528,19.14,42.668,42.668,42.668     c23.529,0,42.669-19.14,42.669-42.668C266.667,125.804,247.525,106.665,223.998,106.665z M223.998,170.665     c-11.763,0-21.334-9.57-21.334-21.334c0-11.762,9.571-21.332,21.334-21.332c11.764,0,21.336,9.57,21.336,21.332     C245.333,161.095,235.762,170.665,223.998,170.665z" fill="#0098fd"/>
			<path d="M288.001,234.666c-23.528,0-42.668,19.141-42.668,42.669c0,23.525,19.14,42.665,42.668,42.665     s42.668-19.139,42.668-42.665C330.669,253.807,311.528,234.666,288.001,234.666z M288.001,298.666     c-11.763,0-21.335-9.569-21.335-21.331c0-11.764,9.571-21.336,21.335-21.336c11.763,0,21.334,9.571,21.334,21.336     C309.336,289.097,299.765,298.666,288.001,298.666z" fill="#0098fd"/>
			<path d="M459.099,213.333c6.735-11.01,9.273-24.112,6.995-37.045c-2.281-12.932-9.148-24.378-19.244-32.419     c2.564-12.648,0.468-25.828-6.098-37.204c-6.568-11.373-16.935-19.778-29.171-23.882c-1.919-12.768-8.397-24.437-18.453-32.874     c-9.925-8.33-22.612-12.792-35.578-12.462c-6.166-11.341-16.247-20.091-28.588-24.585c-5.883-2.14-12.016-3.226-18.232-3.226     c-6.67,0-13.271,1.261-19.459,3.685C281.6,4.774,269.135,0,256,0c-13.136,0-25.6,4.774-35.272,13.322     c-6.188-2.425-12.789-3.685-19.459-3.685c-6.216,0-12.349,1.085-18.235,3.227c-12.342,4.494-22.422,13.246-28.588,24.585     c-12.968-0.322-25.65,4.133-35.573,12.46c-10.062,8.441-16.541,20.109-18.458,32.875c-12.237,4.103-22.601,12.509-29.168,23.882     c-6.566,11.373-8.665,24.553-6.101,37.203c-10.097,8.044-16.961,19.489-19.237,32.419c-2.283,12.931,0.254,26.034,6.99,37.047     c-6.734,11.009-9.272,24.112-6.991,37.041c2.277,12.932,9.141,24.378,19.238,32.423c-2.562,12.65-0.465,25.832,6.101,37.204     c6.564,11.371,16.93,19.776,29.168,23.882c1.918,12.763,8.396,24.432,18.456,32.873c9.925,8.33,22.618,12.773,35.577,12.461     c6.169,11.342,16.248,20.094,28.59,24.587c5.884,2.141,12.018,3.226,18.233,3.226c6.67,0,13.273-1.261,19.459-3.685     c9.672,8.547,22.137,13.322,35.271,13.322s25.598-4.776,35.269-13.322c6.188,2.425,12.789,3.685,19.459,3.685     c6.216,0,12.35-1.086,18.235-3.227c12.339-4.492,22.419-13.244,28.588-24.586c12.945,0.308,25.651-4.132,35.576-12.461     c10.061-8.441,16.54-20.111,18.457-32.873c12.238-4.106,22.603-12.511,29.17-23.883c6.565-11.375,8.661-24.556,6.097-37.206     c10.097-8.041,16.963-19.486,19.245-32.42C468.371,237.444,465.832,224.342,459.099,213.333z M445.085,246.672     c-1.669,9.467-7.439,17.605-15.828,22.331c-4.586,2.582-6.602,8.123-4.75,13.049c3.39,9.011,2.576,18.956-2.23,27.281     c-4.806,8.324-13.011,14-22.51,15.575c-5.19,0.86-8.979,5.375-8.923,10.636c0.101,9.626-4.065,18.69-11.43,24.871     c-5.752,4.826-13.045,7.485-20.541,7.486c-1.985,0-3.982-0.186-5.935-0.551c-5.167-0.971-10.275,1.978-12.022,6.94     c-3.2,9.085-10.216,16.179-19.246,19.467c-8.978,3.268-19.075,2.298-27.259-2.54c-4.528-2.675-10.332-1.654-13.67,2.413     c-6.109,7.439-15.126,11.705-24.738,11.705c-9.614,0-18.63-4.266-24.739-11.705c-2.09-2.545-5.145-3.898-8.249-3.898     c-1.855,0-3.728,0.484-5.422,1.486c-8.181,4.837-18.283,5.805-27.257,2.541c-9.033-3.289-16.048-10.383-19.248-19.467     c-1.747-4.961-6.847-7.913-12.022-6.941c-1.953,0.366-3.95,0.552-5.935,0.552c-7.494,0-14.789-2.658-20.542-7.486     c-7.364-6.18-11.53-15.245-11.429-24.87c0.057-5.261-3.732-9.776-8.923-10.636c-9.499-1.574-17.705-7.25-22.51-15.573     c-4.806-8.326-5.621-18.271-2.235-27.283c1.85-4.924-0.165-10.462-4.748-13.045c-8.389-4.729-14.156-12.867-15.823-22.335     c-1.669-9.467,0.964-19.087,7.229-26.395c3.424-3.994,3.425-9.888,0.002-13.883c-6.266-7.312-8.901-16.935-7.23-26.403     c1.667-9.466,7.433-17.605,15.821-22.332c4.583-2.582,6.6-8.122,4.748-13.045c-3.387-9.012-2.572-18.956,2.236-27.28     c4.807-8.326,13.01-14.002,22.508-15.573c5.192-0.859,8.981-5.375,8.925-10.636c-0.101-9.629,4.064-18.694,11.43-24.873     c5.752-4.827,13.046-7.486,20.543-7.486c1.985,0,3.982,0.185,5.935,0.55c5.174,0.971,10.276-1.981,12.022-6.944     c3.196-9.078,10.211-16.173,19.245-19.462c8.976-3.267,19.076-2.298,27.259,2.54c4.53,2.677,10.334,1.652,13.672-2.414     c6.103-7.436,15.12-11.701,24.736-11.701c9.615,0,18.632,4.266,24.737,11.702c3.338,4.065,9.138,5.092,13.672,2.414     c8.181-4.836,18.286-5.804,27.257-2.541c9.033,3.29,16.048,10.384,19.248,19.467c1.748,4.962,6.86,7.905,12.023,6.94     c1.952-0.366,3.949-0.551,5.934-0.551c7.493,0,14.788,2.659,20.543,7.487c7.36,6.175,11.526,15.242,11.428,24.876     c-0.054,5.26,3.735,9.774,8.925,10.633c9.497,1.571,17.701,7.247,22.509,15.572c4.806,8.328,5.62,18.27,2.232,27.278     c-1.853,4.926,0.162,10.466,4.748,13.049c8.389,4.726,14.159,12.867,15.828,22.333c1.668,9.468-0.969,19.091-7.234,26.402     c-3.423,3.995-3.422,9.888,0.001,13.883C444.115,227.585,446.752,237.207,445.085,246.672z" fill="#0098fd"/>
			<path d="M299.124,81.543c5.598,1.83,11.622-1.221,13.454-6.821c1.833-5.599-1.221-11.622-6.82-13.455     c-26.659-8.721-55.255-10.283-82.696-4.509c-70.738,14.882-122.892,75.689-126.83,147.87     c-0.321,5.883,4.188,10.911,10.069,11.232c0.198,0.011,0.395,0.016,0.591,0.016c5.625,0,10.332-4.401,10.642-10.086     c3.412-62.558,48.612-115.258,109.919-128.156C251.235,72.632,276.017,73.983,299.124,81.543z" fill="#0098fd"/>
			<path d="M405.697,210.806c-5.897-0.321-10.911,4.188-11.232,10.07c-3.412,62.558-48.612,115.257-109.921,128.154     c-23.778,5.003-48.562,3.653-71.669-3.908c-5.597-1.829-11.622,1.221-13.455,6.819c-1.833,5.599,1.222,11.622,6.82,13.455     c16.12,5.275,32.941,7.931,49.79,7.931c11.022,0,22.058-1.137,32.908-3.421c70.737-14.88,122.892-75.687,126.829-147.868     C416.088,216.156,411.579,211.127,405.697,210.806z" fill="#0098fd"/>
			<path d="M119.899,239.895c-1.13-5.782-6.721-9.554-12.512-8.426c-5.781,1.129-9.554,6.731-8.425,12.512     c0.574,2.942,1.25,5.948,2.011,8.937c1.229,4.826,5.568,8.037,10.331,8.037c0.87,0,1.756-0.108,2.639-0.332     c5.709-1.453,9.159-7.26,7.707-12.969C120.984,245.055,120.397,242.444,119.899,239.895z" fill="#0098fd"/>
			<path d="M392.099,186.77c0.994,5.092,5.456,8.625,10.458,8.625c0.677,0,1.365-0.065,2.055-0.201     c5.782-1.129,9.554-6.731,8.425-12.512c-0.575-2.945-1.251-5.951-2.011-8.936c-1.454-5.709-7.254-9.162-12.969-7.706     c-5.709,1.453-9.159,7.259-7.707,12.969C391.013,181.606,391.601,184.217,392.099,186.77z" fill="#0098fd"/>
		</g>
	</g>
</g>
<g>
</g>
<g>
</g>
<g>
</g>
<g>
</g>
<g>
</g>
<g>
</g>
<g>
</g>
<g>
</g>
<g>
</g>
<g>
</g>
<g>
</g>
<g>
</g>
<g>
</g>
<g>
</g>
<g>
</g>
</svg>
